FFmpeg version SVN-r25716, Copyright (c) 2000-2010 the FFmpeg developers  built on Nov 10 2010 12:23:18 with gcc 4.1.2 20080704 (Red Hat 4.1.2-48)  configuration: --enable-libmp3lame --enable-shared --disable-mmx --arch=x86_64  libavutil     50.33. 0 / 50.33. 0  libavcore      0.12. 1 /  0.12. 1  libavcodec    52.94. 4 / 52.94. 4  libavformat   52.84. 0 / 52.84. 0  libavdevice   52. 2. 2 / 52. 2. 2  libavfilter    1.59. 0 /  1.59. 0  libswscale     0.12. 0 /  0.12. 0Seems stream 0 codec frame rate differs from container frame rate: 1200.00 (1200/1) -> 20.00 (20/1)Input #0, mov,mp4,m4a,3gp,3g2,mj2, from '/RAID10/data/converted_video_files/48254.mov':  Metadata:    major_brand     : qt      minor_version   : 0    compatible_brands: qt      encoder         : Mac OS X v? (AVF 651.12.1, CM 1273.54, x86_64)    encoder-eng     : Mac OS X v? (AVF 651.12.1, CM 1273.54, x86_64)  Duration: 00:00:00.80, start: 0.000000, bitrate: 4326 kb/s    Stream #0.0(und): Video: h264, yuv420p, 480x460 [PAR 1:1 DAR 24:23], 4312 kb/s, 20 fps, 20 tbr, 600 tbn, 1200 tbc[buffer @ 0x1aa3ab50] w:480 h:460 pixfmt:yuv420pOutput #0, flv, to '/RAID10/data/converted_video_files/48254.flv':  Metadata:    encoder         : Lavf52.84.0    Stream #0.0(und): Video: flv, yuv420p, 480x460 [PAR 1:1 DAR 24:23], q=2-31, 600 kb/s, 1k tbn, 24 tbcStream mapping:  Stream #0.0 -> #0.0Press [q] to stop encodingframe=   16 fps=  0 q=31.0 Lsize=     408kB time=0.79 bitrate=4221.9kbits/s    video:408kB audio:0kB global headers:0kB muxing overhead 0.111616%